<mxfile host="app.diagrams.net" modified="2021-04-20T08:10:05.758Z" agent="5.0 (Macintosh; Intel Mac OS X 10_15_6) AppleWebKit/605.1.15 (KHTML, like Gecko) Version/14.0.3 Safari/605.1.15" etag="_4-G5UudCS_ixGKUin07" version="14.5.3" type="github">
  <diagram id="I2StB4HqvmvGapNNE5oy" name="Page-1">
    <mxGraphModel dx="1176" dy="695" grid="1" gridSize="10" guides="1" tooltips="1" connect="1" arrows="1" fold="1" page="1" pageScale="1" pageWidth="827" pageHeight="1169" math="0" shadow="0">
      <root>
        <mxCell id="0" />
        <mxCell id="1" parent="0" />
        <mxCell id="PMEJsE3CoTqAWys0NIsd-23" value="" style="rounded=1;whiteSpace=wrap;html=1;strokeColor=#d6b656;fillColor=#FFF2CC;dashed=1;" vertex="1" parent="1">
          <mxGeometry x="120" y="290" width="160" height="220" as="geometry" />
        </mxCell>
        <mxCell id="PMEJsE3CoTqAWys0NIsd-22" value="" style="rounded=1;whiteSpace=wrap;html=1;strokeColor=#9673a6;fillColor=#F8EBFF;dashed=1;" vertex="1" parent="1">
          <mxGeometry x="550" y="290" width="160" height="220" as="geometry" />
        </mxCell>
        <mxCell id="PMEJsE3CoTqAWys0NIsd-20" value="" style="rounded=1;whiteSpace=wrap;html=1;strokeColor=#82b366;fillColor=#EAFFE9;dashed=1;" vertex="1" parent="1">
          <mxGeometry x="350" y="290" width="160" height="220" as="geometry" />
        </mxCell>
        <mxCell id="PMEJsE3CoTqAWys0NIsd-4" style="edgeStyle=orthogonalEdgeStyle;rounded=0;orthogonalLoop=1;jettySize=auto;html=1;exitX=1;exitY=0.5;exitDx=0;exitDy=0;entryX=0;entryY=0.5;entryDx=0;entryDy=0;" edge="1" parent="1" source="PMEJsE3CoTqAWys0NIsd-5" target="PMEJsE3CoTqAWys0NIsd-2">
          <mxGeometry relative="1" as="geometry">
            <mxPoint x="330" y="350" as="sourcePoint" />
          </mxGeometry>
        </mxCell>
        <mxCell id="PMEJsE3CoTqAWys0NIsd-7" value="" style="edgeStyle=orthogonalEdgeStyle;rounded=0;orthogonalLoop=1;jettySize=auto;html=1;" edge="1" parent="1" source="PMEJsE3CoTqAWys0NIsd-2" target="PMEJsE3CoTqAWys0NIsd-6">
          <mxGeometry relative="1" as="geometry" />
        </mxCell>
        <mxCell id="PMEJsE3CoTqAWys0NIsd-10" value="" style="edgeStyle=orthogonalEdgeStyle;rounded=0;orthogonalLoop=1;jettySize=auto;html=1;" edge="1" parent="1" source="PMEJsE3CoTqAWys0NIsd-2">
          <mxGeometry relative="1" as="geometry">
            <mxPoint x="430" y="270" as="targetPoint" />
          </mxGeometry>
        </mxCell>
        <mxCell id="PMEJsE3CoTqAWys0NIsd-2" value="&lt;font style=&quot;font-size: 20px&quot;&gt;Topologic extraction&lt;/font&gt;" style="rounded=0;whiteSpace=wrap;html=1;fillColor=#d5e8d4;strokeColor=#82b366;" vertex="1" parent="1">
          <mxGeometry x="370" y="320" width="120" height="60" as="geometry" />
        </mxCell>
        <mxCell id="PMEJsE3CoTqAWys0NIsd-5" value="&lt;font style=&quot;font-size: 20px&quot;&gt;Initial configurations&lt;/font&gt;" style="shape=parallelogram;perimeter=parallelogramPerimeter;whiteSpace=wrap;html=1;fixedSize=1;strokeColor=#d6b656;fillColor=#F0E3C0;" vertex="1" parent="1">
          <mxGeometry x="120" y="320" width="160" height="60" as="geometry" />
        </mxCell>
        <mxCell id="PMEJsE3CoTqAWys0NIsd-13" value="" style="edgeStyle=orthogonalEdgeStyle;rounded=0;orthogonalLoop=1;jettySize=auto;html=1;" edge="1" parent="1" source="PMEJsE3CoTqAWys0NIsd-6" target="PMEJsE3CoTqAWys0NIsd-12">
          <mxGeometry relative="1" as="geometry" />
        </mxCell>
        <mxCell id="PMEJsE3CoTqAWys0NIsd-6" value="&lt;font style=&quot;font-size: 20px&quot;&gt;IP model formulation&lt;/font&gt;" style="rounded=0;whiteSpace=wrap;html=1;fillColor=#e1d5e7;strokeColor=#9673a6;" vertex="1" parent="1">
          <mxGeometry x="573.5" y="320" width="120" height="60" as="geometry" />
        </mxCell>
        <mxCell id="PMEJsE3CoTqAWys0NIsd-11" style="edgeStyle=orthogonalEdgeStyle;rounded=0;orthogonalLoop=1;jettySize=auto;html=1;exitX=1;exitY=0.5;exitDx=0;exitDy=0;entryX=0.5;entryY=0;entryDx=0;entryDy=0;" edge="1" parent="1" source="PMEJsE3CoTqAWys0NIsd-19" target="PMEJsE3CoTqAWys0NIsd-6">
          <mxGeometry relative="1" as="geometry">
            <mxPoint x="490" y="240" as="sourcePoint" />
          </mxGeometry>
        </mxCell>
        <mxCell id="PMEJsE3CoTqAWys0NIsd-18" value="" style="edgeStyle=orthogonalEdgeStyle;rounded=0;orthogonalLoop=1;jettySize=auto;html=1;" edge="1" parent="1" source="PMEJsE3CoTqAWys0NIsd-12" target="PMEJsE3CoTqAWys0NIsd-14">
          <mxGeometry relative="1" as="geometry" />
        </mxCell>
        <mxCell id="PMEJsE3CoTqAWys0NIsd-12" value="&lt;font style=&quot;font-size: 20px&quot;&gt;IP solver process&lt;/font&gt;" style="whiteSpace=wrap;html=1;rounded=0;fillColor=#e1d5e7;strokeColor=#9673a6;" vertex="1" parent="1">
          <mxGeometry x="574" y="420" width="120" height="60" as="geometry" />
        </mxCell>
        <mxCell id="PMEJsE3CoTqAWys0NIsd-17" value="" style="edgeStyle=orthogonalEdgeStyle;rounded=0;orthogonalLoop=1;jettySize=auto;html=1;" edge="1" parent="1" source="PMEJsE3CoTqAWys0NIsd-14" target="PMEJsE3CoTqAWys0NIsd-16">
          <mxGeometry relative="1" as="geometry" />
        </mxCell>
        <mxCell id="PMEJsE3CoTqAWys0NIsd-14" value="&lt;font style=&quot;font-size: 20px&quot;&gt;Projection&lt;/font&gt;" style="whiteSpace=wrap;html=1;rounded=0;fillColor=#d5e8d4;strokeColor=#82b366;" vertex="1" parent="1">
          <mxGeometry x="370" y="420" width="120" height="60" as="geometry" />
        </mxCell>
        <mxCell id="PMEJsE3CoTqAWys0NIsd-16" value="&lt;font style=&quot;font-size: 20px&quot;&gt;Final solutions&lt;/font&gt;" style="shape=parallelogram;perimeter=parallelogramPerimeter;whiteSpace=wrap;html=1;fixedSize=1;rounded=0;strokeColor=#d6b656;fillColor=#F0E3C0;" vertex="1" parent="1">
          <mxGeometry x="120" y="420" width="160" height="60" as="geometry" />
        </mxCell>
        <mxCell id="PMEJsE3CoTqAWys0NIsd-19" value="&lt;span&gt;&lt;font style=&quot;font-size: 20px&quot;&gt;Initial solution generation&lt;/font&gt;&lt;/span&gt;" style="rounded=1;whiteSpace=wrap;html=1;fillColor=#f8cecc;strokeColor=#b85450;" vertex="1" parent="1">
          <mxGeometry x="370" y="190" width="120" height="80" as="geometry" />
        </mxCell>
        <mxCell id="PMEJsE3CoTqAWys0NIsd-24" value="&lt;font style=&quot;font-size: 20px&quot;&gt;Environment interaction&lt;/font&gt;" style="text;html=1;align=center;verticalAlign=middle;resizable=0;points=[];autosize=1;" vertex="1" parent="1">
          <mxGeometry x="85" y="520" width="230" height="20" as="geometry" />
        </mxCell>
        <mxCell id="PMEJsE3CoTqAWys0NIsd-25" value="&lt;font style=&quot;font-size: 20px&quot;&gt;Mapping&lt;/font&gt;" style="text;html=1;align=center;verticalAlign=middle;resizable=0;points=[];autosize=1;" vertex="1" parent="1">
          <mxGeometry x="385" y="520" width="90" height="20" as="geometry" />
        </mxCell>
        <mxCell id="PMEJsE3CoTqAWys0NIsd-26" value="&lt;font style=&quot;font-size: 20px&quot;&gt;Solution&lt;/font&gt;" style="text;html=1;align=center;verticalAlign=middle;resizable=0;points=[];autosize=1;" vertex="1" parent="1">
          <mxGeometry x="585" y="520" width="90" height="20" as="geometry" />
        </mxCell>
      </root>
    </mxGraphModel>
  </diagram>
</mxfile>
